<?xml version="1.0" encoding="UTF-8" standalone="no"?>
<svg
   id="Layer_1"
   data-name="Layer 1"
   width="913.99274pt"
   height="932.65833pt"
   viewBox="0 0 913.99271 932.65833"
   version="1.1"
   sodipodi:docname="AFL_deck_plate.svg"
   xml:space="preserve"
   inkscape:version="1.3.2 (091e20e, 2023-11-25)"
   xmlns:inkscape="http://www.inkscape.org/namespaces/inkscape"
   xmlns:sodipodi="http://sodipodi.sourceforge.net/DTD/sodipodi-0.dtd"
   xmlns="http://www.w3.org/2000/svg"
   xmlns:svg="http://www.w3.org/2000/svg"><sodipodi:namedview
     id="namedview1"
     pagecolor="#ffffff"
     bordercolor="#666666"
     borderopacity="1.0"
     inkscape:showpageshadow="2"
     inkscape:pageopacity="0.0"
     inkscape:pagecheckerboard="0"
     inkscape:deskcolor="#d1d1d1"
     inkscape:document-units="pt"
     showgrid="false"
     inkscape:zoom="1.3197752"
     inkscape:cx="570.55173"
     inkscape:cy="200.03407"
     inkscape:window-width="2560"
     inkscape:window-height="1387"
     inkscape:window-x="0"
     inkscape:window-y="25"
     inkscape:window-maximized="0"
     inkscape:current-layer="Layer_1" /><defs
     id="defs1"><style
       id="style1">.cls-1{fill:none;stroke:#000;stroke-linecap:round;stroke-linejoin:round;}</style><style
       id="style1-2">.cls-1{fill:none;stroke:#000;stroke-linecap:round;stroke-linejoin:round;}</style></defs><path
     id="path5"
     style="fill:none;stroke:#000000;stroke-width:0.75px;stroke-linecap:butt;stroke-linejoin:miter;stroke-opacity:1"
     d="m 418.84724,74.618353 h 28.34549 m -345.85415,0 H 72.992727 m 0,-26.814888 H 101.33858 V 74.618353 M 447.19273,47.803465 h -28.34549 v 26.814888 m 28.34549,-26.814888 h 426.83664 m -830.321765,0 H 72.992727 M 885.19275,128.45834 V 60.049723 M 31.892727,128.45834 V 59.618343 M 43.090422,903.8126 H 873.29846 m -841.305735,-80.65423 0.375002,68.8725 m 852.825023,-68.91255 0.375,68.40437 m -0.37502,-323.60435 v 255.2 m -853.300003,-439.56 0.1,184.4 m 853.200023,-0.04 v -184.4 m -853.300023,0.04 v -255.1 m 41.1,347.3 v -111.6 m 0,0 4.4,11.9 3.9,12.1 3.3,12.2 2.8,12.4 2.2,12.5 1.7,12.5 1.1,12.7 0.5,12.6 m 0,0 0.2,1.1 0.7,0.9 0.9,0.6 1.1,0.2 1.1,-0.2 0.9,-0.7 0.6,-0.9 0.2,-1.1 m 0,0 -0.7,-14.6 -1.4,-14.5 -2.1,-14.5 -2.9,-14.3 -3.5,-14.2 -4.3,-14 -5,-13.7 -5.7,-13.5 m 0,0 H 447.19273 m 0,0 v 126.06 m 22.7,0 v -111.6 m 0,0 4.4,11.9 3.9,12.1 3.3,12.2 2.7,12.4 2.3,12.5 1.6,12.5 1.1,12.74 0.5,12.6 m 0,0 0.3,1.1 0.6,0.9 0.9,0.6 1.1,0.2 1.1,-0.2 0.9,-0.7 0.6,-0.9 0.2,-1.1 m 0,0 -0.6,-14.6 -1.4,-14.5 -2.2,-14.5 -2.8,-14.3 -3.6,-14.2 -4.3,-14 -4.9,-13.7 -5.7,-13.5 m 0,0 h 374.20001 m 0,0 v 126.06 m 41.1,-347.26 v 255.06 m 1e-5,-323.468617 -11.16339,-12.246258 m -830.321755,0 -11.814878,11.814878 M 844.09274,74.618353 H 469.89273 M 844.09274,326.91834 V 74.618353 m 0,252.299987 -13.5,-5.69999 -13.80001,-4.90001 -13.9,-4.3 -14.2,-3.6 -14.30001,-2.8 -14.5,-2.2 -14.6,-1.3 -14.6,-0.7 m 0,0 -1.1,0.2 -0.9,0.6 -0.6,0.9 -0.3,1.1 0.2,1.1 0.6,0.9 0.9,0.6 1.1,0.3 m 0,0 12.7,0.5 12.6,1.1 12.6,1.6 12.5,2.3 12.3,2.7 12.3,3.4 12.00001,3.8 11.9,4.4 m -353.5,0 h 353.50001 m -353.50001,0 12.9,-4.69999 13,-4.1 13.3,-3.5 13.4,-2.80001 13.6,-2.19999 13.6,-1.5 13.7,-0.80001 13.7,-0.19999 m 0,0 1.1,-0.20001 1,-0.6 0.6,-0.9 0.2,-1.1 -0.2,-1.09999 -0.6,-0.90001 -0.9,-0.69999 -1.1,-0.2 m 0,0 -13.7,0.2 -13.7,0.8 -13.6,1.5 -13.6,2.09999 -13.4,2.80001 -13.3,3.4 -13.1,4 -12.9,4.6 m 0,0 4.6,-12.9 4,-13.1 3.4,-13.30001 2.8,-13.39999 2.1,-13.60001 1.5,-13.59999 0.8,-13.7 0.2,-13.7 m 0,0 -0.2,-1.1 -0.6,-0.9 -1,-0.6 -1.1,-0.2 -1,0.2 -1,0.6 -0.6,1 -0.2,1.1 m 0,0 -0.2,13.7 -0.8,13.7 -1.5,13.6 -2.2,13.6 -2.8,13.4 -3.5,13.3 -4.1,13.09999 -4.7,12.80001 m 0,-231.599997 V 320.81835 m 0,-231.599997 4.4,11.899997 3.9,12 3.3,12.34 2.7,12.3 2.3,12.5 1.6,12.6 1.1,12.6 0.5,12.7 m 0,0 0.3,1.1 0.6,0.9 0.9,0.6 1.1,0.2 1.1,-0.3 0.9,-0.6 0.6,-0.9 0.2,-1.1 m 0,0 -0.6,-14.6 -1.4,-14.6 -2.2,-14.5 -2.8,-14.3 -3.6,-14.2 -4.3,-14 -4.9,-13.699997 -5.7,-13.5 m -396.900003,14.6 V 320.81834 m 0,-231.599987 4.4,11.899997 3.9,12 3.3,12.3 2.8,12.3 2.2,12.5 1.7,12.6 1.1,12.6 0.5,12.7 m 0,0 0.2,1.1 0.7,0.9 0.9,0.6 1.1,0.2 1.1,-0.3 0.9,-0.6 0.6,-0.9 0.2,-1.1 m 0,0 -0.7,-14.6 -1.4,-14.60001 -2.1,-14.5 -2.9,-14.3 -3.5,-14.2 -4.3,-14 -5,-13.699987 -5.7,-13.5 M 447.19273,326.91834 V 74.618353 m 0,252.299987 -13.5,-5.69999 -13.7,-4.90001 -14,-4.3 -14.2,-3.6 -14.3,-2.8 -14.5,-2.16 -14.5,-1.3 -14.6,-0.7 m 0,0 -1.1,0.2 -0.9,0.6 -0.7,0.9 -0.2,1.1 0.2,1.1 0.6,0.9 0.9,0.6 1.1,0.3 m 0,0 12.6,0.5 12.7,1.1 12.5,1.6 12.5,2.3 12.4,2.7 12.2,3.4 12.1,3.8 11.9,4.4 m -353.600003,0 H 432.69273 m -353.600003,0 12.9,-4.7 13.100003,-4.1 13.3,-3.5 13.4,-2.8 13.5,-2.2 13.7,-1.5 13.7,-0.8 13.7,-0.2 m 0,0 1.1,-0.19999 0.9,-0.6 0.6,-0.9 0.3,-1.1 -0.2,-1.10001 -0.6,-0.89999 -1,-0.70001 -1,-0.19999 m 0,0 -13.8,0.19999 -13.6,0.80001 -13.7,1.5 -13.5,2.09999 -13.5,2.80001 -13.3,3.39999 -13.100003,4 -12.9,4.60001 m 0,0 4.7,-12.9 4,-13.1 3.4,-13.3 2.7,-13.40001 2.2,-13.59999 1.4,-13.6 0.9,-13.70001 0.2,-13.69999 m 0,0 -0.3,-1.1 -0.6,-0.9 -0.9,-0.6 -1.1,-0.2 -1.1,0.2 -0.9,0.6 -0.6,1 -0.2,1.1 m 0,0 -0.2,13.7 -0.9,13.7 -1.5,13.59999 -2.1,13.6 -2.9,13.4 -3.4,13.30001 -4.1,13.09999 -4.8,12.80001 m 791.597443,296.58348 1.59832,-0.40101 1.39852,-0.90227 0.89906,-1.40353 0.39958,-1.60402 -0.39958,-1.60403 -0.89906,-1.40353 -1.39852,-0.90226 -1.59832,-0.30076 -1.59831,0.30076 -1.39853,0.90226 -0.89905,1.40353 -0.29969,1.60403 0.29969,1.60402 0.89905,1.40353 1.39853,0.90227 1.59831,0.40101 M 844.09273,475.71834 v 126.1 m 0,0 -13.5,-5.6 -13.7,-5 -14,-4.3 -14.2,-3.6 -14.3,-2.8 -14.5,-2.1 -14.5,-1.4 -14.6,-0.7 m 0,0 -1.1,0.2 -1,0.6 -0.6,0.9 -0.2,1.1 0.2,1.1 0.6,0.9 0.9,0.7 1.1,0.2 m 0,0 12.6,0.5 12.6,1.1 12.6,1.7 12.5,2.2 12.4,2.7 12.2,3.4 12.1,3.8 11.9,4.4 m 0,0 h -353.6 m 0,0 12.9,-4.7 13.1,-4.1 13.3,-3.5 13.4,-2.8 13.5,-2.2 13.7,-1.5 13.7,-0.8 13.7,-0.2 m 0,0 1.1,-0.2 0.9,-0.6 0.6,-0.9 0.2,-1.1 -0.2,-1.1 -0.6,-0.9 -0.9,-0.7 -1.1,-0.2 m 0,0 -13.7,0.2 -13.7,0.8 -13.6,1.5 -13.5,2.1 -13.5,2.8 -13.3,3.4 -13.1,4 -12.9,4.6 m 0,0 4.7,-12.9 4,-13.1 3.4,-13.3 2.7,-13.4 2.2,-13.5 1.4,-13.7 0.9,-13.7 0.1,-13.7 m 0,0 -0.2,-1.1 -0.6,-0.9 -0.9,-0.6 -1.1,-0.2 -1.1,0.2 -0.9,0.7 -0.6,0.9 -0.2,1.1 m 0,0 -0.2,13.7 -0.9,13.7 -1.5,13.6 -2.1,13.6 -2.9,13.4 -3.4,13.3 -4.1,13.1 -4.8,12.8 m 0,0 v -120 m -22.7,0 v 126.1 m 0,0 -13.4,-5.6 -13.8,-5 -13.9,-4.3 -14.2,-3.6 -14.4,-2.8 -14.4,-2.1 -14.6,-1.4 -14.6,-0.7 m 0,0 -1.1,0.2 -0.9,0.6 -0.6,0.9 -0.3,1.1 0.2,1.1 0.6,0.9 0.9,0.7 1.1,0.2 m 0,0 12.7,0.5 12.6,1.1 12.6,1.7 12.4,2.2 12.4,2.7 12.2,3.4 12.1,3.8 11.9,4.4 m 0,0 H 79.192725 m 0,0 12.8,-4.7 13.100005,-4.1 13.3,-3.5 13.4,-2.8 13.6,-2.2 13.6,-1.5 13.7,-0.8 13.7,-0.2 m 0,0 1.1,-0.2 0.9,-0.6 0.7,-0.9 0.2,-1.1 -0.2,-1.1 -0.6,-0.9 -0.9,-0.7 -1.1,-0.2 m 0,0 -13.7,0.2 -13.7,0.8 -13.6,1.5 -13.6,2.1 -13.4,2.8 -13.3,3.4 -13.100005,4 -12.9,4.6 m 0,0 4.6,-12.9 4,-13.1 3.4,-13.3 2.8,-13.4 2.1,-13.5 1.5,-13.7 0.8,-13.7 0.2,-13.7 m 0,0 -0.2,-1.1 -0.7,-0.9 -0.9,-0.6 -1.1,-0.2 -1.1,0.2 -0.9,0.7 -0.6,0.9 -0.2,1.1 m 0,0 -0.2,13.7 -0.8,13.7 -1.5,13.6 -2.2,13.6 -2.8,13.4 -3.5,13.3 -4.1,13.1 -4.7,12.8 m 0,0 v -120 m -41.1,347.44 2e-6,-255.2 m 0.375,324.07253 10.722695,11.78173 m 830.208038,0 12.26929,-12.28991 M 475.99273,876.85834 h 353.6 m -353.6,0 12.9,-4.7 13.1,-4.1 13.3,-3.5 13.4,-2.8 13.5,-2.2 13.7,-1.5 13.7,-0.9 13.7,-0.1 m 0,0 1.1,-0.3 0.9,-0.6 0.6,-0.9 0.2,-1.1 -0.2,-1 -0.6,-1 -0.9,-0.6 -1.1,-0.2 m 0,0 -13.7,0.2 -13.7,0.8 -13.6,1.5 -13.5,2.1 -13.5,2.66 -13.3,3.4 -13.1,4.1 -12.9,4.6 m 0,0 4.7,-12.9 4,-13.1 3.4,-13.3 2.7,-13.4 2.2,-13.6 1.4,-13.6 0.9,-13.7 0.1,-13.7 m 0,0 -0.2,-1.1 -0.6,-0.9 -0.9,-0.6 -1.1,-0.2 -1.1,0.2 -0.9,0.6 -0.6,1 -0.2,1 m 0,0 -0.2,13.8 -0.9,13.7 -1.5,13.6 -2.1,13.5 -2.9,13.5 -3.4,13.2 -4.1,13.1 -4.8,12.9 m 0,-231.6 v 231.6 m 0,-231.6 4.4,11.8 3.9,12.1 3.3,12.2 2.8,12.4 2.2,12.5 1.7,12.6 1,12.6 0.6,12.6 m 0,0 0.2,1.1 0.6,0.9 1,0.6 1.1,0.2 1,-0.2 0.9,-0.6 0.6,-1 0.2,-1.1 m 0,0 -0.6,-14.6 -1.4,-14.5 -2.1,-14.5 -2.9,-14.3 -3.5,-14.2 -4.3,-14 -5,-13.7 -5.7,-13.5 m 374.2,0 h -374.2 m 374.2,252.3 v -252.26 m 0,252.3 -13.5,-5.7 -13.7,-5 -14,-4.2 -14.2,-3.6 -14.3,-2.9 -14.5,-2.1 -14.5,-1.4 -14.6,-0.6 m 0,0 -1.1,0.2 -1,0.6 -0.6,0.9 -0.2,1.1 0.2,1.1 0.6,0.9 0.9,0.6 1.1,0.2 m 0,0 12.6,0.6 12.6,1.1 12.6,1.6 12.5,2.2 12.4,2.8 12.2,3.3 12.1,3.9 11.9,4.4 M 52.492355,617.43447 l 1.599756,-0.30052 1.399787,-1.00171 0.899863,-1.30222 0.299954,-1.7029 -0.299954,-1.60274 -0.899863,-1.40239 -1.399787,-0.90154 -1.599756,-0.30051 -1.699741,0.30051 -1.299803,0.90154 -0.999847,1.40239 -0.299955,1.60274 0.299955,1.7029 0.999847,1.30222 1.299803,1.00171 1.699741,0.30052 m 0,-275.11937 1.599756,-0.30052 1.399787,-1.00171 0.899863,-1.30222 0.299954,-1.7029 -0.299954,-1.60274 -0.899863,-1.40239 -1.399787,-0.90154 -1.599756,-0.30051 -1.699741,0.30051 -1.299803,0.90154 -0.999847,1.40239 -0.299955,1.60274 0.299955,1.7029 0.999847,1.30222 1.299803,1.00171 1.699741,0.30052 m 406.102675,275.11937 1.59976,-0.30052 1.39978,-1.00171 0.89987,-1.30222 0.29995,-1.7029 -0.29995,-1.60274 -0.89987,-1.40239 -1.39978,-0.90154 -1.59976,-0.30051 -1.69974,0.30051 -1.2998,0.90154 -0.99985,1.40239 -0.29995,1.60274 0.29995,1.7029 0.99985,1.30222 1.2998,1.00171 1.69974,0.30052 m 0,-275.11937 1.59976,-0.30052 1.39978,-1.00171 0.89987,-1.30222 0.29995,-1.7029 -0.29995,-1.60274 -0.89987,-1.40239 -1.39978,-0.90154 -1.59976,-0.30051 -1.69974,0.30051 -1.2998,0.90154 -0.99985,1.40239 -0.29995,1.60274 0.29995,1.7029 0.99985,1.30222 1.2998,1.00171 1.69974,0.30052 m 406.09984,0 1.59976,-0.30052 1.39978,-1.00171 0.89987,-1.30222 0.29995,-1.7029 -0.29995,-1.60274 -0.89987,-1.40239 -1.39978,-0.90154 -1.59976,-0.30051 -1.69974,0.30051 -1.2998,0.90154 -0.99985,1.40239 -0.29995,1.60274 0.29995,1.7029 0.99985,1.30222 1.2998,1.00171 1.69974,0.30052 m 0,-276.068977 1.59976,-0.300513 1.39978,-1.001709 0.89987,-1.302223 0.29995,-1.702906 -0.29995,-1.602735 -0.89987,-1.402393 -1.39978,-0.901539 -1.59976,-0.300513 -1.69974,0.300513 -1.2998,0.901539 -0.99985,1.402393 -0.29995,1.602735 0.29995,1.702906 0.99985,1.302223 1.2998,1.001709 1.69974,0.300513 m -406.09983,-0.0042 1.59975,-0.300512 1.39982,-1.00171 0.89987,-1.302222 0.29994,-1.702907 -0.29994,-1.602734 -0.89987,-1.402392 -1.39982,-0.901538 -1.59975,-0.300514 -1.69976,0.300514 -1.29982,0.901538 -0.99986,1.402392 -0.29995,1.602734 0.29995,1.702907 0.99986,1.302222 1.29982,1.00171 1.69976,0.300512 m -406.102714,0.0014 1.599756,-0.300513 1.399787,-1.001709 0.899863,-1.302223 0.299954,-1.702906 -0.299954,-1.602735 -0.899863,-1.402393 -1.399787,-0.901539 -1.599756,-0.300513 -1.699741,0.300513 -1.299803,0.901539 -0.999847,1.402393 -0.299955,1.602735 0.299955,1.702906 0.999847,1.302223 1.299803,1.001709 1.699741,0.300513 M 79.192725,876.85834 H 432.69273 m -353.500005,0 12.8,-4.7 13.100005,-4.1 13.3,-3.5 13.4,-2.8 13.6,-2.2 13.6,-1.5 13.7,-0.9 13.7,-0.1 m 0,0 1.1,-0.3 0.9,-0.6 0.7,-0.9 0.2,-1.1 -0.2,-1 -0.6,-1 -0.9,-0.6 -1.1,-0.2 m 0,0 -13.7,0.2 -13.7,0.8 -13.6,1.5 -13.6,2.1 -13.4,2.66 -13.3,3.4 -13.100005,4.1 -12.9,4.6 m 0,0 4.6,-12.9 4,-13.1 3.4,-13.3 2.8,-13.4 2.1,-13.6 1.5,-13.6 0.8,-13.7 0.2,-13.7 m 0,0 -0.2,-1.1 -0.7,-0.9 -0.9,-0.6 -1.1,-0.2 -1.1,0.2 -0.9,0.6 -0.6,1 -0.2,1 m 0,0 -0.2,13.8 -0.8,13.7 -1.5,13.6 -2.2,13.5 -2.8,13.5 -3.5,13.2 -4.1,13.1 -4.7,12.9 m 0,-231.6 v 231.6 m 0,-231.6 4.4,11.8 3.8,12.1 3.4,12.2 2.7,12.4 2.2,12.5 1.7,12.6 1.1,12.6 0.5,12.6 m 0,0 0.3,1.1 0.6,0.9 0.9,0.6 1.1,0.2 1.1,-0.2 0.9,-0.6 0.6,-1 0.2,-1.1 m 0,0 -0.7,-14.6 -1.4,-14.5 -2.1,-14.5 -2.8,-14.3 -3.6,-14.2 -4.3,-14 -5,-13.7 -5.6,-13.5 m 374.100005,0 H 73.092725 m 374.100005,252.3 v -252.26 m 0,252.3 -13.4,-5.7 -13.8,-5 -13.9,-4.2 -14.2,-3.6 -14.4,-2.9 -14.4,-2.1 -14.6,-1.4 -14.6,-0.6 m 0,0 -1.1,0.2 -0.9,0.6 -0.6,0.9 -0.3,1.1 0.2,1.1 0.6,0.9 0.9,0.6 1.1,0.2 m 0,0 12.7,0.6 12.6,1.1 12.6,1.6 12.4,2.2 12.4,2.8 12.2,3.3 12.1,3.9 11.9,4.4 m -380.30036,17.04763 1.699741,-0.30052 1.299802,-1.00171 0.999848,-1.30222 0.299954,-1.7029 -0.299954,-1.60274 -0.999848,-1.40239 -1.299802,-0.90154 -1.699741,-0.30051 -1.599756,0.30051 -1.399787,0.90154 -0.899863,1.40239 -0.299955,1.60274 0.299955,1.7029 0.899863,1.30222 1.399787,1.00171 1.599756,0.30052 m 406.09956,10e-4 1.59863,-0.30054 1.39881,-1.0018 0.89922,-1.30234 0.39966,-1.70305 -0.39966,-1.60288 -0.89922,-1.40251 -1.39881,-0.90162 -1.59863,-0.30055 -1.59863,0.30055 -1.3988,0.90162 -0.89923,1.40251 -0.29974,1.60288 0.29974,1.70305 0.89923,1.30234 1.3988,1.0018 1.59863,0.30054 m 406.10296,-10e-4 1.69974,-0.30052 1.39978,-1.00171 0.89987,-1.30222 0.29995,-1.7029 -0.29995,-1.60274 -0.89987,-1.40239 -1.39978,-0.90154 -1.69974,-0.30051 -1.59976,0.30051 -1.39979,0.90154 -0.89986,1.40239 -0.29995,1.60274 0.29995,1.7029 0.89986,1.30222 1.39979,1.00171 1.59976,0.30052" /></svg>
